<svg width="785" height="376" viewBox="0 0 785 376" fill="none" xmlns="http://www.w3.org/2000/svg">
<g filter="url(#filter0_d_132_15)">
<path fill-rule="evenodd" clip-rule="evenodd" d="M64.5995 171.971C67.1297 171.971 69.199 174.038 69.199 176.566V198.492C69.199 201.02 67.1297 203.088 64.5995 203.088C62.0693 203.088 60 201.02 60 198.492V176.566C60 174.038 62.0693 171.971 64.5995 171.971Z" fill="url(#paint0_linear_132_15)"/>
<path fill-rule="evenodd" clip-rule="evenodd" d="M87.9889 148.257C90.5185 148.257 92.5878 150.324 92.5878 152.852V222.209C92.5878 224.737 90.5185 226.804 87.9889 226.804C85.4581 226.804 83.3894 224.737 83.3894 222.209V152.852C83.3894 150.324 85.4581 148.257 87.9889 148.257Z" fill="url(#paint1_linear_132_15)"/>
<path fill-rule="evenodd" clip-rule="evenodd" d="M111.378 161.601C113.908 161.601 115.977 163.668 115.977 166.197V208.861C115.977 211.389 113.908 213.457 111.378 213.457C108.848 213.457 106.778 211.389 106.778 208.861V166.197C106.778 163.668 108.848 161.601 111.378 161.601Z" fill="url(#paint2_linear_132_15)"/>
<path fill-rule="evenodd" clip-rule="evenodd" d="M134.767 112.396C137.297 112.396 139.367 114.463 139.367 116.992V258.068C139.367 260.596 137.297 262.664 134.767 262.664C132.237 262.664 130.168 260.596 130.168 258.068V116.992C130.168 114.463 132.237 112.396 134.767 112.396Z" fill="url(#paint3_linear_132_15)"/>
<path fill-rule="evenodd" clip-rule="evenodd" d="M158.156 127.886C160.686 127.886 162.755 129.953 162.755 132.481V242.577C162.755 245.105 160.686 247.172 158.156 247.172C155.626 247.172 153.556 245.105 153.556 242.577V132.481C153.556 129.953 155.626 127.886 158.156 127.886Z" fill="url(#paint4_linear_132_15)"/>
<path fill-rule="evenodd" clip-rule="evenodd" d="M181.545 61.8223C184.076 61.8223 186.145 63.8884 186.145 66.417V308.641C186.145 311.168 184.076 313.235 181.545 313.235C179.015 313.235 176.946 311.168 176.946 308.641V66.417C176.946 63.8884 179.015 61.8223 181.545 61.8223Z" fill="url(#paint5_linear_132_15)"/>
<path fill-rule="evenodd" clip-rule="evenodd" d="M204.934 94.1709C207.464 94.1709 209.534 96.239 209.534 98.767V276.292C209.534 278.82 207.464 280.888 204.934 280.888C202.404 280.888 200.334 278.82 200.334 276.292V98.767C200.334 96.239 202.404 94.1709 204.934 94.1709Z" fill="url(#paint6_linear_132_15)"/>
<path fill-rule="evenodd" clip-rule="evenodd" d="M228.323 127.429C230.854 127.429 232.923 129.497 232.923 132.025V243.031C232.923 245.559 230.854 247.626 228.323 247.626C225.793 247.626 223.724 245.559 223.724 243.031V132.025C223.724 129.497 225.793 127.429 228.323 127.429Z" fill="url(#paint7_linear_132_15)"/>
<path fill-rule="evenodd" clip-rule="evenodd" d="M251.713 113.308C254.242 113.308 256.312 115.374 256.312 117.904V257.158C256.312 259.686 254.242 261.752 251.713 261.752C249.182 261.752 247.113 259.686 247.113 257.158V117.904C247.113 115.374 249.182 113.308 251.713 113.308Z" fill="url(#paint8_linear_132_15)"/>
<path fill-rule="evenodd" clip-rule="evenodd" d="M275.101 161.146C277.632 161.146 279.701 163.213 279.701 165.741V209.317C279.701 211.845 277.632 213.913 275.101 213.913C272.571 213.913 270.502 211.845 270.502 209.317V165.741C270.502 163.213 272.571 161.146 275.101 161.146Z" fill="url(#paint9_linear_132_15)"/>
<path fill-rule="evenodd" clip-rule="evenodd" d="M298.491 171.625C301.021 171.625 303.09 173.692 303.09 176.22V198.839C303.09 201.367 301.021 203.435 298.491 203.435C295.961 203.435 293.892 201.367 293.892 198.839V176.22C293.892 173.692 295.961 171.625 298.491 171.625Z" fill="url(#paint10_linear_132_15)"/>
<path fill-rule="evenodd" clip-rule="evenodd" d="M321.88 127.886C324.41 127.886 326.479 129.953 326.479 132.481V242.577C326.479 245.105 324.41 247.172 321.88 247.172C319.349 247.172 317.28 245.105 317.28 242.577V132.481C317.28 129.953 319.349 127.886 321.88 127.886Z" fill="url(#paint11_linear_132_15)"/>
<path fill-rule="evenodd" clip-rule="evenodd" d="M345.269 112.851C347.799 112.851 349.869 114.917 349.869 117.446V257.612C349.869 260.14 347.799 262.207 345.269 262.207C342.739 262.207 340.67 260.14 340.67 257.612V117.446C340.67 114.917 342.739 112.851 345.269 112.851Z" fill="url(#paint12_linear_132_15)"/>
<path fill-rule="evenodd" clip-rule="evenodd" d="M368.658 160.688C371.188 160.688 373.257 162.757 373.257 165.284V209.771C373.257 212.299 371.188 214.367 368.658 214.367C366.128 214.367 364.058 212.299 364.058 209.771V165.284C364.058 162.757 366.128 160.688 368.658 160.688Z" fill="url(#paint13_linear_132_15)"/>
<path fill-rule="evenodd" clip-rule="evenodd" d="M392.047 129.253C394.578 129.253 396.647 131.32 396.647 133.848V241.21C396.647 243.738 394.578 245.806 392.047 245.806C389.517 245.806 387.448 243.738 387.448 241.21V133.848C387.448 131.32 389.517 129.253 392.047 129.253Z" fill="url(#paint14_linear_132_15)"/>
<path fill-rule="evenodd" clip-rule="evenodd" d="M415.437 135.63C417.966 135.63 420.036 137.698 420.036 140.225V234.831C420.036 237.358 417.966 239.425 415.437 239.425C412.906 239.425 410.837 237.358 410.837 234.831V140.225C410.837 137.698 412.906 135.63 415.437 135.63Z" fill="url(#paint15_linear_132_15)"/>
<path fill-rule="evenodd" clip-rule="evenodd" d="M438.825 113.308C441.356 113.308 443.425 115.374 443.425 117.904V257.158C443.425 259.686 441.356 261.752 438.825 261.752C436.295 261.752 434.226 259.686 434.226 257.158V117.904C434.226 115.374 436.295 113.308 438.825 113.308Z" fill="url(#paint16_linear_132_15)"/>
<path fill-rule="evenodd" clip-rule="evenodd" d="M462.215 60C464.744 60 466.814 62.0681 466.814 64.5961V310.462C466.814 312.99 464.744 315.058 462.215 315.058C459.685 315.058 457.615 312.99 457.615 310.462V64.5961C457.615 62.0681 459.685 60 462.215 60Z" fill="url(#paint17_linear_132_15)"/>
<path fill-rule="evenodd" clip-rule="evenodd" d="M485.604 93.7148C488.134 93.7148 490.203 95.7823 490.203 98.3109V276.748C490.203 279.274 488.134 281.342 485.604 281.342C483.073 281.342 481.004 279.274 481.004 276.748V98.3109C481.004 95.7823 483.073 93.7148 485.604 93.7148Z" fill="url(#paint18_linear_132_15)"/>
<path fill-rule="evenodd" clip-rule="evenodd" d="M508.993 161.146C511.523 161.146 513.593 163.213 513.593 165.741V209.317C513.593 211.845 511.523 213.913 508.993 213.913C506.463 213.913 504.394 211.845 504.394 209.317V165.741C504.394 163.213 506.463 161.146 508.993 161.146Z" fill="url(#paint19_linear_132_15)"/>
<path fill-rule="evenodd" clip-rule="evenodd" d="M532.382 127.429C534.912 127.429 536.981 129.497 536.981 132.025V243.031C536.981 245.559 534.912 247.626 532.382 247.626C529.852 247.626 527.782 245.559 527.782 243.031V132.025C527.782 129.497 529.852 127.429 532.382 127.429Z" fill="url(#paint20_linear_132_15)"/>
<path fill-rule="evenodd" clip-rule="evenodd" d="M555.771 93.7148C558.301 93.7148 560.371 95.7823 560.371 98.3109V276.748C560.371 279.274 558.301 281.342 555.771 281.342C553.241 281.342 551.172 279.274 551.172 276.748V98.3109C551.172 95.7823 553.241 93.7148 555.771 93.7148Z" fill="url(#paint21_linear_132_15)"/>
<path fill-rule="evenodd" clip-rule="evenodd" d="M579.161 137.454C581.69 137.454 583.76 139.522 583.76 142.05V233.009C583.76 235.537 581.69 237.605 579.161 237.605C576.63 237.605 574.561 235.537 574.561 233.009V142.05C574.561 139.522 576.63 137.454 579.161 137.454Z" fill="url(#paint22_linear_132_15)"/>
<path fill-rule="evenodd" clip-rule="evenodd" d="M602.549 112.396C605.08 112.396 607.149 114.463 607.149 116.992V258.068C607.149 260.596 605.08 262.664 602.549 262.664C600.019 262.664 597.95 260.596 597.95 258.068V116.992C597.95 114.463 600.019 112.396 602.549 112.396Z" fill="url(#paint23_linear_132_15)"/>
<path fill-rule="evenodd" clip-rule="evenodd" d="M625.939 60C628.468 60 630.538 62.0681 630.538 64.5961V310.462C630.538 312.99 628.468 315.058 625.939 315.058C623.408 315.058 621.339 312.99 621.339 310.462V64.5961C621.339 62.0681 623.408 60 625.939 60Z" fill="url(#paint24_linear_132_15)"/>
<path fill-rule="evenodd" clip-rule="evenodd" d="M649.328 93.7148C651.858 93.7148 653.927 95.7823 653.927 98.3109V276.748C653.927 279.274 651.858 281.342 649.328 281.342C646.797 281.342 644.728 279.274 644.728 276.748V98.3109C644.728 95.7823 646.797 93.7148 649.328 93.7148Z" fill="url(#paint25_linear_132_15)"/>
<path fill-rule="evenodd" clip-rule="evenodd" d="M672.717 137.454C675.247 137.454 677.316 139.522 677.316 142.05V233.009C677.316 235.537 675.247 237.605 672.717 237.605C670.187 237.605 668.117 235.537 668.117 233.009V142.05C668.117 139.522 670.187 137.454 672.717 137.454Z" fill="url(#paint26_linear_132_15)"/>
<path fill-rule="evenodd" clip-rule="evenodd" d="M696.106 162.969C698.636 162.969 700.705 165.036 700.705 167.565V207.497C700.705 210.025 698.636 212.091 696.106 212.091C693.576 212.091 691.506 210.025 691.506 207.497V167.565C691.506 165.036 693.576 162.969 696.106 162.969Z" fill="url(#paint27_linear_132_15)"/>
<path fill-rule="evenodd" clip-rule="evenodd" d="M719.495 171.971C722.025 171.971 724.095 174.038 724.095 176.566V198.492C724.095 201.02 722.025 203.088 719.495 203.088C716.965 203.088 714.896 201.02 714.896 198.492V176.566C714.896 174.038 716.965 171.971 719.495 171.971Z" fill="url(#paint28_linear_132_15)"/>
</g>
<defs>
<filter id="filter0_d_132_15" x="0" y="0" width="784.095" height="375.059" filterUnits="userSpaceOnUse" color-interpolation-filters="sRGB">
<feFlood flood-opacity="0" result="BackgroundImageFix"/>
<feColorMatrix in="SourceAlpha" type="matrix" values="0 0 0 0 0 0 0 0 0 0 0 0 0 0 0 0 0 0 127 0" result="hardAlpha"/>
<feOffset/>
<feGaussianBlur stdDeviation="30"/>
<feColorMatrix type="matrix" values="0 0 0 0 0.952941 0 0 0 0 0.843137 0 0 0 0 0.701961 0 0 0 1 0"/>
<feBlend mode="normal" in2="BackgroundImageFix" result="effect1_dropShadow_132_15"/>
<feBlend mode="normal" in="SourceGraphic" in2="effect1_dropShadow_132_15" result="shape"/>
</filter>
<linearGradient id="paint0_linear_132_15" x1="64.5995" y1="171.971" x2="64.5995" y2="203.088" gradientUnits="userSpaceOnUse">
<stop stop-color="#F3D7B3" stop-opacity="0.51"/>
<stop offset="0.484375" stop-color="#F3D7B3"/>
<stop offset="1" stop-color="#F3D7B3" stop-opacity="0.51"/>
</linearGradient>
<linearGradient id="paint1_linear_132_15" x1="87.9886" y1="148.257" x2="87.9886" y2="226.804" gradientUnits="userSpaceOnUse">
<stop stop-color="#F3D7B3" stop-opacity="0.51"/>
<stop offset="0.484375" stop-color="#F3D7B3"/>
<stop offset="1" stop-color="#F3D7B3" stop-opacity="0.51"/>
</linearGradient>
<linearGradient id="paint2_linear_132_15" x1="111.378" y1="161.601" x2="111.378" y2="213.457" gradientUnits="userSpaceOnUse">
<stop stop-color="#F3D7B3" stop-opacity="0.51"/>
<stop offset="0.484375" stop-color="#F3D7B3"/>
<stop offset="1" stop-color="#F3D7B3" stop-opacity="0.51"/>
</linearGradient>
<linearGradient id="paint3_linear_132_15" x1="134.767" y1="112.396" x2="134.767" y2="262.664" gradientUnits="userSpaceOnUse">
<stop stop-color="#F3D7B3" stop-opacity="0.51"/>
<stop offset="0.484375" stop-color="#F3D7B3"/>
<stop offset="1" stop-color="#F3D7B3" stop-opacity="0.51"/>
</linearGradient>
<linearGradient id="paint4_linear_132_15" x1="158.156" y1="127.886" x2="158.156" y2="247.172" gradientUnits="userSpaceOnUse">
<stop stop-color="#F3D7B3" stop-opacity="0.51"/>
<stop offset="0.484375" stop-color="#F3D7B3"/>
<stop offset="1" stop-color="#F3D7B3" stop-opacity="0.51"/>
</linearGradient>
<linearGradient id="paint5_linear_132_15" x1="181.545" y1="61.8223" x2="181.545" y2="313.235" gradientUnits="userSpaceOnUse">
<stop stop-color="#F3D7B3" stop-opacity="0.51"/>
<stop offset="0.484375" stop-color="#F3D7B3"/>
<stop offset="1" stop-color="#F3D7B3" stop-opacity="0.51"/>
</linearGradient>
<linearGradient id="paint6_linear_132_15" x1="204.934" y1="94.1709" x2="204.934" y2="280.888" gradientUnits="userSpaceOnUse">
<stop stop-color="#F3D7B3" stop-opacity="0.51"/>
<stop offset="0.484375" stop-color="#F3D7B3"/>
<stop offset="1" stop-color="#F3D7B3" stop-opacity="0.51"/>
</linearGradient>
<linearGradient id="paint7_linear_132_15" x1="228.323" y1="127.429" x2="228.323" y2="247.626" gradientUnits="userSpaceOnUse">
<stop stop-color="#F3D7B3" stop-opacity="0.51"/>
<stop offset="0.484375" stop-color="#F3D7B3"/>
<stop offset="1" stop-color="#F3D7B3" stop-opacity="0.51"/>
</linearGradient>
<linearGradient id="paint8_linear_132_15" x1="251.712" y1="113.308" x2="251.712" y2="261.752" gradientUnits="userSpaceOnUse">
<stop stop-color="#F3D7B3" stop-opacity="0.51"/>
<stop offset="0.484375" stop-color="#F3D7B3"/>
<stop offset="1" stop-color="#F3D7B3" stop-opacity="0.51"/>
</linearGradient>
<linearGradient id="paint9_linear_132_15" x1="275.101" y1="161.146" x2="275.101" y2="213.913" gradientUnits="userSpaceOnUse">
<stop stop-color="#F3D7B3" stop-opacity="0.51"/>
<stop offset="0.484375" stop-color="#F3D7B3"/>
<stop offset="1" stop-color="#F3D7B3" stop-opacity="0.51"/>
</linearGradient>
<linearGradient id="paint10_linear_132_15" x1="298.491" y1="171.625" x2="298.491" y2="203.435" gradientUnits="userSpaceOnUse">
<stop stop-color="#F3D7B3" stop-opacity="0.51"/>
<stop offset="0.484375" stop-color="#F3D7B3"/>
<stop offset="1" stop-color="#F3D7B3" stop-opacity="0.51"/>
</linearGradient>
<linearGradient id="paint11_linear_132_15" x1="321.88" y1="127.886" x2="321.88" y2="247.172" gradientUnits="userSpaceOnUse">
<stop stop-color="#F3D7B3" stop-opacity="0.51"/>
<stop offset="0.484375" stop-color="#F3D7B3"/>
<stop offset="1" stop-color="#F3D7B3" stop-opacity="0.51"/>
</linearGradient>
<linearGradient id="paint12_linear_132_15" x1="345.269" y1="112.851" x2="345.269" y2="262.207" gradientUnits="userSpaceOnUse">
<stop stop-color="#F3D7B3" stop-opacity="0.51"/>
<stop offset="0.484375" stop-color="#F3D7B3"/>
<stop offset="1" stop-color="#F3D7B3" stop-opacity="0.51"/>
</linearGradient>
<linearGradient id="paint13_linear_132_15" x1="368.658" y1="160.688" x2="368.658" y2="214.367" gradientUnits="userSpaceOnUse">
<stop stop-color="#F3D7B3" stop-opacity="0.51"/>
<stop offset="0.484375" stop-color="#F3D7B3"/>
<stop offset="1" stop-color="#F3D7B3" stop-opacity="0.51"/>
</linearGradient>
<linearGradient id="paint14_linear_132_15" x1="392.047" y1="129.253" x2="392.047" y2="245.806" gradientUnits="userSpaceOnUse">
<stop stop-color="#F3D7B3" stop-opacity="0.51"/>
<stop offset="0.484375" stop-color="#F3D7B3"/>
<stop offset="1" stop-color="#F3D7B3" stop-opacity="0.51"/>
</linearGradient>
<linearGradient id="paint15_linear_132_15" x1="415.436" y1="135.63" x2="415.436" y2="239.425" gradientUnits="userSpaceOnUse">
<stop stop-color="#F3D7B3" stop-opacity="0.51"/>
<stop offset="0.484375" stop-color="#F3D7B3"/>
<stop offset="1" stop-color="#F3D7B3" stop-opacity="0.51"/>
</linearGradient>
<linearGradient id="paint16_linear_132_15" x1="438.825" y1="113.308" x2="438.825" y2="261.752" gradientUnits="userSpaceOnUse">
<stop stop-color="#F3D7B3" stop-opacity="0.51"/>
<stop offset="0.484375" stop-color="#F3D7B3"/>
<stop offset="1" stop-color="#F3D7B3" stop-opacity="0.51"/>
</linearGradient>
<linearGradient id="paint17_linear_132_15" x1="462.215" y1="60" x2="462.215" y2="315.058" gradientUnits="userSpaceOnUse">
<stop stop-color="#F3D7B3" stop-opacity="0.51"/>
<stop offset="0.484375" stop-color="#F3D7B3"/>
<stop offset="1" stop-color="#F3D7B3" stop-opacity="0.51"/>
</linearGradient>
<linearGradient id="paint18_linear_132_15" x1="485.604" y1="93.7148" x2="485.604" y2="281.342" gradientUnits="userSpaceOnUse">
<stop stop-color="#F3D7B3" stop-opacity="0.51"/>
<stop offset="0.484375" stop-color="#F3D7B3"/>
<stop offset="1" stop-color="#F3D7B3" stop-opacity="0.51"/>
</linearGradient>
<linearGradient id="paint19_linear_132_15" x1="508.993" y1="161.146" x2="508.993" y2="213.913" gradientUnits="userSpaceOnUse">
<stop stop-color="#F3D7B3" stop-opacity="0.51"/>
<stop offset="0.484375" stop-color="#F3D7B3"/>
<stop offset="1" stop-color="#F3D7B3" stop-opacity="0.51"/>
</linearGradient>
<linearGradient id="paint20_linear_132_15" x1="532.382" y1="127.429" x2="532.382" y2="247.626" gradientUnits="userSpaceOnUse">
<stop stop-color="#F3D7B3" stop-opacity="0.51"/>
<stop offset="0.484375" stop-color="#F3D7B3"/>
<stop offset="1" stop-color="#F3D7B3" stop-opacity="0.51"/>
</linearGradient>
<linearGradient id="paint21_linear_132_15" x1="555.771" y1="93.7148" x2="555.771" y2="281.342" gradientUnits="userSpaceOnUse">
<stop stop-color="#F3D7B3" stop-opacity="0.51"/>
<stop offset="0.484375" stop-color="#F3D7B3"/>
<stop offset="1" stop-color="#F3D7B3" stop-opacity="0.51"/>
</linearGradient>
<linearGradient id="paint22_linear_132_15" x1="579.16" y1="137.454" x2="579.16" y2="237.605" gradientUnits="userSpaceOnUse">
<stop stop-color="#F3D7B3" stop-opacity="0.51"/>
<stop offset="0.484375" stop-color="#F3D7B3"/>
<stop offset="1" stop-color="#F3D7B3" stop-opacity="0.51"/>
</linearGradient>
<linearGradient id="paint23_linear_132_15" x1="602.55" y1="112.396" x2="602.55" y2="262.664" gradientUnits="userSpaceOnUse">
<stop stop-color="#F3D7B3" stop-opacity="0.51"/>
<stop offset="0.484375" stop-color="#F3D7B3"/>
<stop offset="1" stop-color="#F3D7B3" stop-opacity="0.51"/>
</linearGradient>
<linearGradient id="paint24_linear_132_15" x1="625.939" y1="60" x2="625.939" y2="315.058" gradientUnits="userSpaceOnUse">
<stop stop-color="#F3D7B3" stop-opacity="0.51"/>
<stop offset="0.484375" stop-color="#F3D7B3"/>
<stop offset="1" stop-color="#F3D7B3" stop-opacity="0.51"/>
</linearGradient>
<linearGradient id="paint25_linear_132_15" x1="649.328" y1="93.7148" x2="649.328" y2="281.342" gradientUnits="userSpaceOnUse">
<stop stop-color="#F3D7B3" stop-opacity="0.51"/>
<stop offset="0.484375" stop-color="#F3D7B3"/>
<stop offset="1" stop-color="#F3D7B3" stop-opacity="0.51"/>
</linearGradient>
<linearGradient id="paint26_linear_132_15" x1="672.717" y1="137.454" x2="672.717" y2="237.605" gradientUnits="userSpaceOnUse">
<stop stop-color="#F3D7B3" stop-opacity="0.51"/>
<stop offset="0.484375" stop-color="#F3D7B3"/>
<stop offset="1" stop-color="#F3D7B3" stop-opacity="0.51"/>
</linearGradient>
<linearGradient id="paint27_linear_132_15" x1="696.106" y1="162.969" x2="696.106" y2="212.091" gradientUnits="userSpaceOnUse">
<stop stop-color="#F3D7B3" stop-opacity="0.51"/>
<stop offset="0.484375" stop-color="#F3D7B3"/>
<stop offset="1" stop-color="#F3D7B3" stop-opacity="0.51"/>
</linearGradient>
<linearGradient id="paint28_linear_132_15" x1="719.495" y1="171.971" x2="719.495" y2="203.088" gradientUnits="userSpaceOnUse">
<stop stop-color="#F3D7B3" stop-opacity="0.51"/>
<stop offset="0.484375" stop-color="#F3D7B3"/>
<stop offset="1" stop-color="#F3D7B3" stop-opacity="0.51"/>
</linearGradient>
</defs>
</svg>
